PathFileType	4	(x/y/z)	S02_PSF_T06
DataRate	CameraRate	NumFrames	NumMarkers	Units	OrigDataRate	OrigDataStartFrame	OrigNumFrames
240	240	4	51	mm	240	204	407
Frame#	Time	Sternum			R.Acromium			L.Acromium			Top.Head			R.ASIS			L.ASIS			R.PSIS			L.PSIS			R.Great.Tro			L.Great.Tro			R.Iliac.Crest			L.Iliac.Crest			V.Sacral			R.Thigh.Upper.Post			R.Thigh.Lower.Ant			R.Thigh.Lower.Post			R.Thigh.Upper.Ant			R.Knee.Lat			R.Knee.Med			R.Shank.Upper.Post			R.Shank.Lower.Ant			R.Shank.Lower.Post			R.Shank.Upper.Ant			R.Ankle.Lat			R.Ankle.Med			R.Heel.Upper			R.Heel.Med			R.Heel.Lat			R.Toe.Lat			R.Toe.Med			R.Toe.Tip			L.Thigh.Upper.Post			L.Thigh.Lower.Ant			L.Thigh.Lower.Post			L.Thigh.Upper.Ant			L.Knee.Lat			L.Knee.Med			L.Shank.Upper.Post			L.Shank.Lower.Ant			L.Shank.Lower.Post			L.Shank.Upper.Ant			L.Ankle.Lat			L.Ankle.Med			L.Heel.Upper			L.Heel.Med			L.Heel.Lat			L.Toe.Lat			L.Toe.Med			L.Toe.Tip			Cervical.Spine			Back			
		X1	Y1	Z1	X2	Y2	Z2	X3	Y3	Z3	X4	Y4	Z4	X5	Y5	Z5	X6	Y6	Z6	X7	Y7	Z7	X8	Y8	Z8	X9	Y9	Z9	X10	Y10	Z10	X11	Y11	Z11	X12	Y12	Z12	X13	Y13	Z13	X14	Y14	Z14	X15	Y15	Z15	X16	Y16	Z16	X17	Y17	Z17	X18	Y18	Z18	X19	Y19	Z19	X20	Y20	Z20	X21	Y21	Z21	X22	Y22	Z22	X23	Y23	Z23	X24	Y24	Z24	X25	Y25	Z25	X26	Y26	Z26	X27	Y27	Z27	X28	Y28	Z28	X29	Y29	Z29	X30	Y30	Z30	X31	Y31	Z31	X32	Y32	Z32	X33	Y33	Z33	X34	Y34	Z34	X35	Y35	Z35	X36	Y36	Z36	X37	Y37	Z37	X38	Y38	Z38	X39	Y39	Z39	X40	Y40	Z40	X41	Y41	Z41	X42	Y42	Z42	X43	Y43	Z43	X44	Y44	Z44	X45	Y45	Z45	X46	Y46	Z46	X47	Y47	Z47	X48	Y48	Z48	X49	Y49	Z49	X50	Y50	Z50	X51	Y51	Z51	

204	0.84583	-213.02	1112	324.09	-312.75	1340.6	479.88	-322.83	1357.2	188.7	-294.1	1638.2	350.9	-238.15	950.73	423.68	-242.72	944.67	215.75	-450.94	988.27	377.54	-458.89	992.51	304.24	-312.32	824.23	515.2	-365.8	833.76	133.24	-339.66	987.6	487.84	-367.8	989.79	156.09	-482.17	944.13	337.53	-309.18	614.81	488.69	-262.16	537.35	441.24	-329.8	528.91	468.22	-245.96	623.36	461.38	-319.4	451.61	446.14	-345.23	445.78	304.23	-426.78	256.4	431.63	-361.98	168.16	406.67	-427.91	183.4	419.07	-355.53	235.98	424.94	-423.51	92.148	403.89	-418.24	106.3	319.15	-489.31	77.578	349.6	-476.33	44.908	321.85	-485.72	46.628	385.63	-323.97	40.209	425.77	-292.05	33.232	317.97	-243.06	60.101	373.12	-312.06	607.25	151.26	-215.3	556.85	132.97	-278.33	523.9	167.84	-256.35	642.5	120.86	-211.48	474.2	142.52	-174.98	475.96	277.52	-348.01	349.13	174.68	-317.64	241.97	174.83	-375.47	283.29	193.07	-295.66	313.54	158.29	-395.02	167.41	202.45	-366.31	156.75	279.24	-453.84	156.58	250.52	-447.86	130.15	283.86	-465.75	128.1	225.06	-328.17	54.704	163.54	-281.5	58.829	262.59	-231.35	51.504	204.6	-394.2	1409.2	343.15	-469.07	1158.2	341.25
205	0.85	-207.87	1112.4	324.32	-307.33	1341.1	479.92	-317.79	1357.2	188.75	-288.71	1638.4	350.66	-233.47	951	424.15	-237.41	945.3	216.34	-446.01	988.27	377.13	-453.81	992.67	303.83	-308.13	823.99	515.33	-359.66	834.47	132.7	-335.12	987.6	487.8	-362.27	990.32	156.17	-477.14	944.21	336.96	-307.17	614.7	488.76	-260.73	536.7	441.6	-328.58	528.99	468.27	-243.68	622.55	461.76	-318.8	451.56	446.28	-344.15	445.74	304.21	-426.57	256.61	431.54	-361.91	168.28	406.63	-427.79	183.62	418.98	-355.37	236.09	424.94	-423.45	92.276	403.81	-418.1	106.42	319.05	-489.23	77.716	349.45	-476.31	45.002	321.76	-485.68	46.8	385.53	-323.95	40.212	425.77	-292.04	33.201	317.98	-243.02	60.059	373.13	-305.27	607.77	151.19	-208.12	557.91	133.39	-271.07	524.62	168.05	-249.68	643.28	120.9	-203.69	475.25	143.19	-167.74	477.47	278.12	-337.11	346.43	174.84	-303.76	240.18	174.91	-362.63	279.88	193.08	-283.8	312.32	158.5	-379.13	163.37	202.24	-350.07	153.37	279.1	-437.68	150.63	250.28	-430.86	124.29	283.55	-448.66	121.79	224.76	-308.81	52.759	163.19	-262.24	58.203	262.27	-211.9	52.505	204.27	-388.9	1409.3	343.23	-463.88	1158.4	341.65
206	0.85417	-202.72	1112.7	324.56	-301.9	1341.5	479.96	-312.73	1357.2	188.79	-283.31	1638.5	350.4	-228.77	951.17	424.61	-232.1	945.83	216.91	-441.08	988.19	376.71	-448.73	992.75	303.4	-303.95	823.71	515.46	-353.49	835.11	132.13	-330.58	987.53	487.74	-356.73	990.77	156.22	-472.11	944.2	336.37	-305.19	614.59	488.84	-259.31	536.06	442	-327.38	529.08	468.32	-241.43	621.73	462.17	-318.2	451.53	446.43	-343.02	445.68	304.23	-426.34	256.83	431.46	-361.85	168.39	406.59	-427.66	183.83	418.9	-355.21	236.19	424.95	-423.39	92.398	403.74	-417.95	106.54	318.95	-489.15	77.848	349.29	-476.28	45.098	321.68	-485.63	46.971	385.42	-323.93	40.21	425.77	-292.04	33.175	317.99	-242.99	60.018	373.15	-298.56	608.2	151.14	-201.06	558.86	133.84	-263.94	525.25	168.28	-243.07	643.96	120.95	-196.03	476.2	143.88	-160.66	478.85	278.77	-326.17	343.66	174.99	-289.82	238.42	174.98	-349.7	276.45	193.08	-271.93	311.09	158.71	-363.1	159.4	201.98	-333.69	150.06	278.9	-421.28	144.75	249.99	-413.64	118.54	283.2	-431.34	115.59	224.42	-289.38	50.979	162.8	-242.94	57.731	261.9	-192.46	53.656	203.91	-383.59	1409.4	343.29	-458.69	1158.5	342.02
207	0.85833	-197.54	1112.9	324.8	-296.46	1341.9	480	-307.67	1357.2	188.81	-277.92	1638.5	350.13	-224.05	951.24	425.08	-226.77	946.24	217.46	-436.15	988.03	376.27	-443.64	992.75	302.96	-299.79	823.4	515.6	-347.32	835.67	131.54	-326.04	987.38	487.68	-351.18	991.13	156.26	-467.06	944.12	335.76	-303.24	614.48	488.94	-257.9	535.42	442.46	-326.19	529.17	468.38	-239.2	620.91	462.62	-317.6	451.49	446.61	-341.84	445.59	304.29	-426.1	257.04	431.41	-361.79	168.5	406.56	-427.52	184.05	418.82	-355.05	236.28	424.96	-423.33	92.515	403.66	-417.8	106.65	318.86	-489.08	77.973	349.12	-476.24	45.196	321.59	-485.59	47.138	385.31	-323.91	40.205	425.77	-292.04	33.153	318.01	-242.96	59.978	373.17	-291.95	608.55	151.09	-194.1	559.69	134.32	-256.94	525.78	168.52	-236.53	644.53	121.03	-188.5	477.04	144.6	-153.74	480.09	279.47	-315.18	340.85	175.13	-275.83	236.71	175.03	-336.69	273	193.07	-260.05	309.86	158.91	-346.93	155.51	201.68	-317.19	146.83	278.67	-404.66	138.96	249.66	-396.21	112.93	282.8	-413.81	109.52	224.02	-269.89	49.377	162.36	-223.61	57.424	261.49	-173.05	54.968	203.5	-378.27	1409.4	343.34	-453.49	1158.6	342.37
